<?xml version="1.0" standalone="no"?>
<!DOCTYPE svg PUBLIC "-//W3C//DTD SVG 20010904//EN"
 "http://www.w3.org/TR/2001/REC-SVG-20010904/DTD/svg10.dtd">
<svg version="1.0" xmlns="http://www.w3.org/2000/svg"
 width="1272.000000pt" height="784.000000pt" viewBox="0 0 1272.000000 784.000000"
 preserveAspectRatio="xMidYMid meet">

<g transform="translate(0.000000,784.000000) scale(0.100000,-0.100000)"
fill="#000000" stroke="none">
<path d="M2553 4785 c-7 -8 -13 -20 -13 -27 0 -8 -9 -20 -20 -28 -11 -8 -20
-22 -20 -32 0 -10 -4 -18 -10 -18 -5 0 -10 -9 -10 -20 0 -11 -4 -20 -10 -20
-15 0 -12 -29 4 -46 17 -16 46 -19 46 -4 0 6 14 10 30 10 36 0 40 -20 10 -52
-11 -12 -20 -28 -20 -35 0 -7 -4 -13 -10 -13 -5 0 -10 -9 -10 -19 0 -11 -6
-21 -12 -23 -9 -3 -8 -10 5 -22 17 -17 19 -17 42 10 14 16 25 35 25 42 0 6 5
12 10 12 6 0 10 8 10 18 0 10 9 24 20 32 11 8 20 22 20 32 0 10 5 18 10 18 6
0 10 14 10 30 0 28 -2 30 -40 30 -22 0 -40 -4 -40 -10 0 -5 -9 -10 -20 -10
-13 0 -20 7 -20 20 0 11 5 20 10 20 6 0 10 7 10 16 0 8 7 22 15 31 8 8 13 19
10 24 -4 5 -1 9 4 9 6 0 11 9 11 20 0 23 -29 26 -47 5z"/>
<path d="M1520 4464 c0 -8 23 -37 50 -64 28 -27 50 -51 50 -54 0 -3 -13 -6
-30 -6 -16 0 -30 -4 -30 -10 0 -5 -13 -10 -30 -10 -20 0 -30 -5 -30 -15 0 -19
104 -125 123 -125 7 0 19 -9 27 -20 23 -31 50 -26 50 10 0 20 -5 30 -15 30 -9
0 -32 16 -51 35 -30 30 -33 37 -21 49 8 8 29 16 48 18 51 5 52 39 3 83 -21 19
-42 35 -47 35 -5 0 -22 14 -37 30 -30 32 -60 40 -60 14z"/>
<path d="M3520 4430 c-25 -27 -51 -49 -58 -49 -17 -1 -42 -26 -42 -41 0 -18
27 -40 50 -40 12 0 28 -7 36 -15 14 -13 10 -20 -35 -64 -54 -52 -65 -81 -31
-81 11 0 20 5 20 10 0 6 6 10 14 10 8 0 36 22 63 48 27 27 57 51 66 55 10 4
17 17 17 32 0 21 -5 25 -30 25 -16 0 -30 5 -30 10 0 6 -9 10 -20 10 -11 0 -20
5 -20 10 0 6 5 10 12 10 6 0 9 3 6 6 -3 3 14 24 38 46 37 34 41 42 29 54 -22
22 -37 16 -85 -36z"/>
<path d="M4993 4265 c-20 -22 -19 -1071 1 -1091 11 -10 41 -14 116 -14 75 0
105 4 116 14 21 22 21 1070 0 1092 -21 20 -216 19 -233 -1z"/>
<path d="M2340 4250 c0 -5 -22 -10 -50 -10 -27 0 -50 -4 -50 -10 0 -5 -18 -10
-40 -10 -22 0 -40 -4 -40 -10 0 -5 -9 -10 -20 -10 -11 0 -20 -4 -20 -10 0 -5
-10 -10 -23 -10 -13 0 -33 -9 -45 -20 -12 -11 -28 -20 -37 -20 -8 0 -15 -4
-15 -10 0 -5 -9 -10 -20 -10 -11 0 -20 -4 -20 -10 0 -5 -7 -10 -16 -10 -9 0
-29 -13 -44 -30 -15 -16 -33 -30 -39 -30 -16 0 -121 -107 -121 -123 0 -7 -9
-19 -20 -27 -11 -8 -20 -21 -20 -30 0 -9 -9 -22 -20 -30 -11 -8 -20 -22 -20
-32 0 -10 -4 -18 -10 -18 -5 0 -10 -13 -10 -30 0 -16 -4 -30 -10 -30 -5 0 -10
-13 -10 -30 0 -16 -4 -30 -10 -30 -6 0 -10 -43 -10 -110 0 -67 4 -110 10 -110
6 0 10 -13 10 -30 0 -16 5 -30 10 -30 6 0 10 -7 10 -15 0 -20 85 -105 105
-105 8 0 15 -4 15 -10 0 -5 9 -10 20 -10 11 0 20 -4 20 -10 0 -5 9 -10 20 -10
11 0 20 -4 20 -8 0 -4 17 -9 38 -10 20 -2 39 -7 40 -12 2 -6 21 -10 43 -10 21
0 39 -4 39 -10 0 -5 18 -10 40 -10 22 0 40 -4 40 -10 0 -5 14 -10 30 -10 17 0
30 -4 30 -10 0 -5 14 -10 30 -10 17 0 30 -4 30 -10 0 -5 9 -10 20 -10 11 0 20
-4 20 -10 0 -5 14 -10 30 -10 17 0 30 -4 30 -10 0 -5 9 -10 20 -10 11 0 20 -4
20 -10 0 -5 9 -10 20 -10 11 0 20 -4 20 -10 0 -5 9 -10 20 -10 11 0 20 -4 20
-10 0 -5 8 -10 18 -10 10 0 24 -9 32 -20 8 -11 20 -20 28 -20 7 0 35 -22 62
-50 27 -27 56 -50 64 -50 9 0 16 -7 16 -16 0 -9 14 -29 30 -44 17 -15 30 -34
30 -42 0 -7 9 -20 20 -28 11 -8 20 -20 20 -28 0 -18 46 -62 65 -62 8 0 15 5
15 10 0 6 18 10 40 10 22 0 40 5 40 10 0 6 14 10 30 10 17 0 30 5 30 10 0 6
14 10 30 10 28 0 30 2 30 40 0 22 -4 40 -10 40 -5 0 -10 14 -10 30 0 17 -4 30
-8 30 -5 0 -9 20 -11 45 -2 52 14 75 53 75 14 0 26 5 26 10 0 6 9 10 20 10 11
0 20 5 20 10 0 6 9 10 20 10 11 0 20 5 20 10 0 6 12 10 26 10 14 0 23 4 19 10
-3 6 4 10 18 10 13 0 33 9 45 20 12 11 27 20 34 20 8 0 20 9 28 20 8 11 18 20
22 20 18 0 108 88 108 105 0 6 9 17 20 25 11 8 20 22 20 32 0 10 5 18 10 18 6
0 10 14 10 30 0 17 5 30 10 30 6 0 10 40 10 100 0 60 -4 100 -10 100 -5 0 -10
18 -10 40 0 22 -4 40 -10 40 -5 0 -10 18 -10 40 0 22 -4 40 -10 40 -5 0 -10 9
-10 20 0 11 -4 20 -10 20 -5 0 -10 9 -10 20 0 11 -4 20 -10 20 -5 0 -10 7 -10
16 0 9 -13 29 -30 44 -17 15 -30 33 -30 39 0 15 -126 141 -141 141 -6 0 -24
14 -39 30 -15 17 -34 30 -42 30 -7 0 -20 9 -28 20 -8 11 -25 20 -37 20 -13 0
-23 5 -23 10 0 6 -9 10 -20 10 -11 0 -20 5 -20 10 0 6 -11 10 -25 10 -14 0
-25 5 -25 10 0 6 -13 10 -30 10 -16 0 -30 5 -30 10 0 6 -13 10 -30 10 -16 0
-30 5 -30 10 0 6 -27 10 -60 10 -33 0 -60 4 -60 10 0 6 -70 10 -190 10 -120 0
-190 -4 -190 -10z m300 -40 c0 -6 30 -10 70 -10 40 0 70 -4 70 -10 0 -5 18
-10 40 -10 l40 0 0 -50 c0 -27 -4 -50 -10 -50 -5 0 -10 -7 -10 -16 0 -8 -18
-33 -40 -54 -47 -45 -52 -70 -14 -70 27 0 94 62 94 87 0 7 5 13 10 13 6 0 10
16 10 36 0 19 6 42 14 50 17 16 46 19 46 4 0 -5 9 -10 20 -10 11 0 20 -4 20
-10 0 -5 9 -10 20 -10 11 0 20 -4 20 -10 0 -5 9 -10 20 -10 11 0 20 -4 20 -10
0 -5 8 -10 18 -10 10 0 24 -9 32 -20 8 -11 20 -20 27 -20 17 0 183 -166 183
-183 0 -7 9 -19 20 -27 11 -8 20 -22 20 -32 0 -10 5 -18 10 -18 6 0 10 -9 10
-20 0 -11 5 -20 10 -20 6 0 10 -15 10 -32 0 -25 3 -29 10 -18 7 11 10 4 10
-27 0 -24 5 -43 10 -43 6 0 10 -50 10 -130 0 -80 -4 -130 -10 -130 -5 0 -10
-9 -10 -20 0 -11 -4 -20 -10 -20 -5 0 -10 -7 -10 -15 0 -19 -104 -125 -123
-125 -7 0 -19 -9 -27 -20 -8 -11 -21 -20 -30 -20 -9 0 -22 -9 -30 -20 -10 -14
-26 -20 -52 -20 -21 0 -38 5 -38 10 0 6 -7 10 -16 10 -20 0 -44 24 -44 44 0 9
-4 16 -10 16 -5 0 -10 14 -10 30 0 17 -4 30 -10 30 -5 0 -10 7 -10 15 0 9 -16
31 -35 50 -32 32 -39 35 -95 35 -56 0 -63 -3 -95 -35 -19 -19 -35 -41 -35 -50
0 -8 -4 -15 -10 -15 -15 0 -12 -29 4 -46 25 -24 46 -17 46 16 0 17 5 30 10 30
6 0 10 9 10 20 0 13 7 20 19 20 11 0 21 5 23 12 7 19 98 -12 98 -34 0 -10 5
-18 10 -18 6 0 10 -9 10 -20 0 -11 5 -20 10 -20 6 0 10 -12 10 -26 0 -17 14
-39 41 -65 36 -35 39 -41 25 -54 -8 -8 -26 -15 -40 -15 -14 0 -26 -4 -26 -10
0 -5 -7 -10 -15 -10 -29 0 -65 -47 -65 -85 0 -19 5 -35 10 -35 6 0 10 -22 10
-50 0 -27 5 -50 10 -50 6 0 10 -9 10 -20 0 -13 -7 -20 -20 -20 -11 0 -20 -4
-20 -10 0 -5 -18 -10 -40 -10 -22 0 -40 -4 -40 -10 0 -5 -7 -10 -15 -10 -19 0
-65 44 -65 62 0 8 -9 20 -20 28 -11 8 -20 20 -20 27 0 17 -166 183 -183 183
-7 0 -19 9 -27 20 -8 11 -22 20 -32 20 -10 0 -18 5 -18 10 0 6 -9 10 -20 10
-11 0 -20 5 -20 10 0 6 -9 10 -20 10 -11 0 -20 5 -20 10 0 6 -9 10 -20 10 -11
0 -20 5 -20 10 0 6 -9 10 -20 10 -11 0 -20 5 -20 10 0 6 -13 10 -30 10 -16 0
-30 5 -30 10 0 6 -13 10 -30 10 -16 0 -30 5 -30 10 0 6 -13 10 -30 10 -16 0
-30 5 -30 10 0 6 -7 10 -15 10 -25 0 -65 46 -65 75 0 14 -4 25 -10 25 -5 0
-10 5 -10 11 0 5 5 7 10 4 6 -4 10 8 10 29 0 20 5 36 10 36 6 0 10 9 10 19 0
11 6 21 12 23 9 3 8 9 -4 22 -17 16 -19 16 -43 -8 -14 -14 -25 -32 -25 -41 0
-8 -4 -15 -10 -15 -6 0 -10 -27 -10 -60 0 -36 4 -60 11 -60 5 0 7 -4 4 -10 -9
-15 -75 -13 -75 3 0 8 -4 7 -10 -3 -6 -10 -10 -11 -10 -2 0 7 -13 12 -30 12
-16 0 -30 5 -30 10 0 6 -13 10 -28 10 -16 0 -34 8 -42 20 -8 11 -20 20 -28 20
-18 0 -42 25 -42 44 0 9 -4 16 -10 16 -5 0 -10 9 -10 20 0 11 -4 20 -10 20 -6
0 -10 50 -10 130 0 80 4 130 10 130 6 0 10 14 10 30 0 17 5 30 10 30 6 0 10 9
10 20 0 11 5 20 10 20 6 0 10 7 10 16 0 8 7 22 15 31 8 8 12 19 9 25 -4 7 -2
8 4 4 7 -4 12 -2 12 4 0 14 126 140 141 140 6 0 24 14 39 30 15 17 35 30 44
30 9 0 16 5 16 10 0 6 9 10 20 10 11 0 20 5 20 10 0 6 9 10 20 10 11 0 20 5
20 10 0 6 9 10 20 10 11 0 20 5 20 10 0 6 14 10 30 10 17 0 30 5 30 10 0 6 14
10 30 10 17 0 30 5 30 10 0 6 14 10 30 10 17 0 30 4 30 8 0 4 14 9 30 10 35 3
38 -8 10 -28 -11 -8 -20 -22 -20 -32 0 -10 -4 -18 -10 -18 -5 0 -10 -9 -10
-20 0 -34 29 -23 80 30 27 28 56 50 64 50 9 0 16 5 16 10 0 6 9 10 20 10 11 0
20 5 20 10 0 6 30 10 70 10 40 0 70 -4 70 -10z"/>
<path d="M2480 4040 c0 -11 -4 -20 -10 -20 -5 0 -10 -18 -10 -40 0 -22 5 -40
10 -40 6 0 10 -9 10 -20 0 -11 5 -20 10 -20 6 0 10 -7 10 -15 0 -22 67 -88 74
-72 3 9 5 9 5 0 1 -8 15 -13 37 -13 29 0 35 3 30 16 -3 9 -6 18 -6 20 0 2 -7
4 -15 4 -9 0 -36 20 -60 45 -44 44 -45 46 -45 110 0 58 -2 65 -20 65 -13 0
-20 -7 -20 -20z"/>
<path d="M2060 3970 c0 -5 -9 -10 -20 -10 -11 0 -20 -4 -20 -10 0 -5 -7 -10
-15 -10 -26 0 -105 -86 -105 -115 0 -14 -4 -25 -10 -25 -5 0 -10 -13 -10 -30
0 -21 5 -30 16 -30 23 0 44 25 44 54 0 14 5 26 10 26 6 0 10 7 10 15 0 20 45
65 65 65 8 0 15 5 15 10 0 6 7 10 16 10 20 0 44 24 44 44 0 9 -8 16 -20 16
-11 0 -20 -4 -20 -10z"/>
<path d="M3080 3870 c0 -5 -7 -10 -16 -10 -19 0 -64 -48 -64 -67 0 -7 -4 -13
-10 -13 -5 0 -10 -13 -10 -30 0 -16 -4 -30 -10 -30 -5 0 -10 -18 -10 -40 0
-22 5 -40 10 -40 6 0 10 -21 10 -46 0 -38 -5 -51 -30 -74 -38 -35 -39 -60 -4
-60 27 0 68 36 58 51 -3 5 0 9 5 9 7 0 11 39 11 110 0 67 4 110 10 110 6 0 10
7 10 15 0 9 11 27 25 40 13 14 31 25 40 25 8 0 15 5 15 10 0 6 9 10 20 10 13
0 20 7 20 20 0 17 -7 20 -40 20 -22 0 -40 -4 -40 -10z"/>
<path d="M2140 3670 c0 -21 5 -30 16 -30 20 0 44 -24 44 -44 0 -9 5 -16 10
-16 6 0 10 -9 10 -20 0 -11 5 -20 10 -20 6 0 10 -22 10 -50 0 -27 -4 -50 -10
-50 -15 0 -12 -29 5 -46 13 -14 17 -14 30 0 18 17 22 186 5 186 -5 0 -10 7
-10 15 0 20 -85 105 -105 105 -10 0 -15 -10 -15 -30z"/>
<path d="M1740 3611 c0 -16 -6 -32 -12 -35 -10 -5 -10 -7 0 -12 6 -3 12 -19
12 -35 0 -16 5 -29 10 -29 6 0 10 -7 10 -16 0 -23 25 -44 54 -44 14 0 26 -4
26 -10 0 -5 9 -10 20 -10 16 0 20 7 20 30 0 26 -4 30 -26 30 -29 0 -54 21 -54
44 0 9 -4 16 -10 16 -5 0 -10 23 -10 50 0 43 -3 50 -20 50 -15 0 -20 -7 -20
-29z"/>
<path d="M3252 3624 c-12 -13 -11 -18 7 -33 18 -16 21 -30 21 -95 0 -44 -4
-76 -10 -76 -5 0 -10 -13 -10 -30 0 -21 5 -30 16 -30 20 0 44 24 44 44 0 9 5
16 10 16 6 0 10 30 10 70 0 40 -4 70 -10 70 -5 0 -10 9 -10 20 0 11 -4 20 -10
20 -5 0 -10 9 -10 20 0 24 -29 26 -48 4z"/>
<path d="M2440 3580 c0 -18 7 -20 60 -20 33 0 60 -4 60 -10 0 -5 12 -10 26
-10 17 0 39 -14 64 -40 40 -42 90 -55 90 -25 0 26 -86 105 -115 105 -14 0 -25
5 -25 10 0 6 -33 10 -80 10 -73 0 -80 -2 -80 -20z"/>
<path d="M2533 3345 c-7 -8 -13 -21 -13 -30 0 -8 -4 -15 -10 -15 -5 0 -10 -9
-10 -20 0 -16 -7 -20 -30 -20 -16 0 -30 -4 -30 -10 0 -14 -38 -12 -42 2 -6 17
-38 -14 -38 -36 0 -13 13 -16 65 -16 62 0 68 2 100 35 22 21 35 44 35 60 0 14
5 25 10 25 6 0 5 8 -2 20 -15 23 -19 24 -35 5z"/>
<path d="M4140 3710 l0 -550 336 0 c277 0 338 2 350 14 20 20 20 192 0 212
-12 11 -57 14 -230 14 l-216 0 0 100 0 100 160 0 160 0 0 120 0 120 -160 0
-160 0 0 86 c0 61 4 90 14 100 12 11 55 14 220 14 l206 0 0 110 0 110 -340 0
-340 0 0 -550z"/>
<path d="M9920 4252 c0 -4 9 -14 20 -22 11 -8 20 -22 20 -32 0 -10 5 -18 10
-18 6 0 10 -6 10 -13 0 -7 8 -22 18 -33 9 -10 23 -31 31 -46 8 -16 18 -28 23
-28 4 0 8 -7 8 -16 0 -9 14 -29 30 -44 17 -15 30 -35 30 -44 0 -9 5 -16 10
-16 6 0 10 -8 10 -18 0 -10 9 -24 20 -32 11 -8 20 -21 20 -30 0 -9 9 -22 20
-30 11 -8 20 -21 20 -30 0 -9 9 -22 20 -30 11 -8 20 -22 20 -31 0 -10 6 -20
13 -23 10 -5 10 -7 0 -12 -7 -3 -13 -15 -13 -27 0 -18 -2 -19 -10 -7 -8 12
-10 11 -10 -7 0 -13 -4 -23 -10 -23 -5 0 -10 -8 -10 -18 0 -10 -9 -24 -20 -32
-11 -8 -20 -21 -20 -30 0 -9 -9 -22 -20 -30 -11 -8 -20 -21 -20 -30 0 -9 -9
-22 -20 -30 -11 -8 -20 -21 -20 -30 0 -9 -9 -22 -20 -30 -11 -8 -20 -21 -20
-30 0 -9 -9 -22 -20 -30 -11 -8 -20 -21 -20 -30 0 -9 -9 -22 -20 -30 -11 -8
-20 -21 -20 -30 0 -9 -9 -22 -20 -30 -11 -8 -20 -22 -20 -32 0 -10 -4 -18 -10
-18 -5 0 -10 -4 -10 -10 0 -6 55 -10 145 -10 130 0 146 2 152 18 4 9 15 24 25
33 10 9 18 23 18 30 0 8 9 21 20 29 11 8 20 21 20 30 0 9 9 22 20 30 11 8 20
21 20 30 0 9 9 22 20 30 11 8 20 20 20 28 0 7 11 24 25 38 28 28 37 24 64 -28
8 -16 18 -28 23 -28 4 0 8 -8 8 -18 0 -10 9 -24 20 -32 11 -8 20 -21 20 -29 0
-7 8 -21 18 -30 9 -9 23 -28 31 -43 8 -16 18 -28 23 -28 4 0 8 -6 8 -13 0 -8
8 -21 18 -30 15 -14 42 -17 150 -17 132 0 132 0 132 24 0 12 -13 37 -30 54
-16 18 -30 39 -30 47 0 8 -4 15 -10 15 -5 0 -10 6 -10 13 0 7 -9 23 -20 35
-11 12 -20 26 -20 33 0 6 -13 24 -30 39 -16 15 -30 35 -30 44 0 9 -4 16 -10
16 -5 0 -10 6 -10 14 0 7 -13 27 -30 44 -16 18 -30 38 -30 45 0 7 -9 19 -20
27 -11 8 -20 21 -20 30 0 9 -9 22 -20 30 -11 8 -20 26 -20 40 0 14 9 32 20 40
11 8 20 22 20 32 0 10 5 18 10 18 6 0 10 9 10 21 0 11 5 17 10 14 6 -3 10 0
10 9 0 8 4 16 9 18 5 2 11 10 13 18 2 8 11 22 21 31 9 9 17 23 17 30 0 8 9 21
20 29 11 8 20 21 20 30 0 9 9 22 20 30 11 8 20 21 20 30 0 9 9 22 20 30 11 8
20 21 20 30 0 9 9 22 20 30 11 8 20 21 20 30 0 9 9 22 20 30 11 8 20 22 20 32
0 16 -12 18 -140 18 -105 0 -140 -3 -140 -12 0 -9 -4 -8 -10 2 -8 12 -10 11
-10 -7 0 -13 -4 -23 -10 -23 -5 0 -10 -8 -10 -18 0 -10 -9 -24 -20 -32 -11 -8
-20 -21 -20 -30 0 -9 -9 -22 -20 -30 -11 -8 -20 -21 -20 -30 0 -9 -9 -22 -20
-30 -11 -8 -20 -20 -20 -28 0 -18 -46 -62 -65 -62 -8 0 -15 8 -15 18 0 10 -9
24 -20 32 -11 8 -20 21 -20 30 0 9 -9 22 -20 30 -11 8 -20 21 -20 30 0 9 -9
22 -20 30 -11 8 -20 21 -20 29 0 7 -8 21 -18 30 -9 9 -23 28 -31 44 l-14 27
-149 0 c-81 0 -148 -4 -148 -8z"/>
<path d="M8453 4165 c-8 -9 -13 -45 -13 -100 l0 -85 -46 0 c-66 0 -74 -13 -74
-117 0 -60 3 -83 10 -73 6 10 10 11 10 3 0 -9 17 -13 50 -13 l50 0 0 -222 c0
-148 4 -218 10 -208 7 11 10 4 10 -27 0 -24 5 -43 10 -43 6 0 10 -7 10 -15 0
-20 65 -85 85 -85 8 0 15 -4 15 -10 0 -6 47 -10 120 -10 73 0 120 4 120 10 0
6 9 10 20 10 19 0 20 7 20 100 l0 100 -40 0 c-22 0 -40 -4 -40 -10 0 -15 -49
-12 -66 4 -8 8 -14 22 -14 30 0 9 -4 16 -10 16 -6 0 -10 62 -10 166 0 130 3
168 14 180 10 10 38 14 90 14 l76 0 0 100 0 100 -90 0 -90 0 0 100 c0 82 -3
100 -15 100 -8 0 -15 -4 -15 -10 0 -6 -28 -10 -64 -10 -36 0 -68 5 -71 10 -9
15 -48 12 -62 -5z"/>
<path d="M5740 3990 c0 -5 -18 -10 -40 -10 -22 0 -40 -4 -40 -10 0 -5 -12 -10
-26 -10 -14 0 -23 -4 -19 -10 3 -5 -3 -10 -14 -10 -12 0 -21 -4 -21 -10 0 -5
-7 -10 -15 -10 -20 0 -145 -125 -145 -145 0 -8 -4 -15 -10 -15 -5 0 -10 -13
-10 -30 0 -16 -4 -30 -10 -30 -6 0 -10 -50 -10 -130 0 -80 4 -130 10 -130 6 0
10 -13 10 -30 0 -16 5 -30 10 -30 6 0 10 -7 10 -16 0 -8 5 -12 10 -9 6 3 10
-1 10 -10 0 -20 105 -125 125 -125 8 0 15 -4 15 -10 0 -5 9 -10 19 -10 11 0
21 -4 23 -10 2 -5 15 -11 31 -12 15 -1 27 -6 27 -10 0 -4 23 -8 50 -8 28 0 50
-4 50 -10 0 -5 18 -10 40 -10 22 0 40 5 40 10 0 6 27 10 60 10 33 0 60 4 60
10 0 6 9 10 20 10 25 0 84 33 116 65 l25 25 -68 67 c-36 37 -68 62 -71 55 -2
-7 -17 -12 -33 -12 -16 0 -29 -4 -29 -10 0 -6 -44 -10 -112 -10 -77 0 -108 3
-98 10 11 7 7 10 -18 10 -20 0 -31 4 -27 10 3 6 1 10 -5 10 -17 0 -40 26 -40
44 0 9 -4 16 -10 16 -5 0 -10 5 -10 10 0 6 99 10 276 10 225 0 278 3 290 14
16 17 20 146 4 146 -5 0 -10 23 -10 50 0 28 -4 50 -10 50 -5 0 -10 9 -10 20 0
11 -4 20 -10 20 -5 0 -10 7 -10 16 0 9 -8 24 -17 33 -10 9 -23 25 -29 35 -6
11 -19 24 -30 30 -10 6 -26 19 -35 29 -9 9 -24 17 -33 17 -9 0 -16 5 -16 10 0
6 -9 10 -20 10 -11 0 -20 5 -20 10 0 6 -18 10 -40 10 -22 0 -40 5 -40 10 0 6
-27 10 -60 10 -33 0 -60 -4 -60 -10z m120 -220 c0 -5 7 -10 15 -10 20 0 85
-65 85 -85 0 -13 -23 -15 -160 -15 -137 0 -160 2 -160 15 0 20 65 85 85 85 8
0 15 5 15 10 0 6 27 10 60 10 33 0 60 -4 60 -10z"/>
<path d="M7680 3990 c0 -5 -18 -10 -40 -10 -22 0 -40 -4 -40 -10 0 -5 -9 -10
-20 -10 -11 0 -20 -4 -20 -10 0 -5 -7 -10 -15 -10 -20 0 -145 -125 -145 -145
0 -8 -4 -15 -10 -15 -5 0 -10 -9 -10 -20 0 -11 -4 -20 -10 -20 -5 0 -10 -13
-10 -30 0 -16 -4 -30 -10 -30 -6 0 -10 -43 -10 -110 0 -67 4 -110 10 -110 6 0
10 -13 10 -30 0 -16 5 -30 10 -30 6 0 10 -9 10 -20 0 -11 5 -20 10 -20 6 0 10
-7 10 -16 0 -9 8 -24 18 -33 9 -9 22 -25 28 -35 6 -11 19 -24 30 -30 10 -6 26
-19 35 -28 9 -10 24 -18 33 -18 9 0 16 -4 16 -10 0 -5 9 -10 19 -10 11 0 23
-4 26 -10 3 -5 31 -10 61 -10 30 0 54 -4 54 -10 0 -5 9 -10 20 -10 11 0 20 5
20 10 0 6 23 10 50 10 28 0 50 5 50 10 0 6 8 10 18 10 10 0 24 9 32 20 23 31
50 26 50 -10 l0 -30 104 0 c57 0 111 3 120 6 14 5 16 51 16 410 l0 404 -120 0
c-102 0 -120 -2 -120 -16 0 -8 -7 -22 -15 -31 -14 -14 -18 -13 -34 6 -10 12
-26 21 -35 21 -9 0 -16 5 -16 10 0 6 -18 10 -40 10 -22 0 -40 5 -40 10 0 6
-22 10 -50 10 -27 0 -50 -4 -50 -10z m140 -220 c0 -5 11 -10 25 -10 32 0 86
-53 103 -101 14 -42 16 -159 2 -159 -5 0 -10 -11 -10 -25 0 -26 -40 -75 -60
-75 -6 0 -9 -4 -6 -8 2 -4 -7 -9 -22 -10 -15 -1 -28 -7 -30 -12 -5 -13 -102
-13 -102 0 0 6 -9 10 -20 10 -11 0 -20 5 -20 10 0 6 -7 10 -16 10 -20 0 -33
15 -62 67 -19 35 -23 56 -21 118 1 41 6 75 10 75 5 0 9 7 9 15 0 20 45 65 65
65 8 0 15 4 15 8 0 11 59 29 103 31 20 0 37 -3 37 -9z"/>
<path d="M9340 3990 c0 -5 -18 -10 -40 -10 -22 0 -40 -4 -40 -10 0 -5 -9 -10
-20 -10 -11 0 -20 -4 -20 -10 0 -5 -9 -10 -20 -10 -11 0 -20 -4 -20 -10 0 -5
-7 -10 -15 -10 -20 0 -125 -105 -125 -125 0 -8 -4 -15 -10 -15 -5 0 -10 -9
-10 -20 0 -11 -4 -20 -10 -20 -5 0 -10 -11 -10 -25 0 -14 -4 -25 -10 -25 -6 0
-10 -45 -10 -115 0 -70 4 -115 10 -115 6 0 10 -13 10 -30 0 -16 5 -30 10 -30
6 0 10 -9 10 -20 0 -11 5 -20 10 -20 6 0 10 -7 10 -15 0 -19 84 -105 103 -105
7 0 19 -9 27 -20 8 -11 22 -20 32 -20 10 0 18 -4 18 -10 0 -5 14 -10 30 -10
17 0 30 -4 30 -10 0 -6 27 -10 60 -10 33 0 60 -4 60 -10 0 -5 14 -10 30 -10
17 0 30 5 30 10 0 6 27 10 60 10 33 0 60 4 60 10 0 6 14 10 30 10 17 0 30 5
30 10 0 6 6 10 13 10 7 0 22 8 33 18 10 10 27 21 37 25 9 3 17 11 17 17 0 17
-133 145 -138 132 -2 -7 -15 -12 -28 -12 -14 0 -22 -4 -19 -10 4 -6 -33 -10
-104 -10 -67 0 -111 4 -111 10 0 6 -9 10 -20 10 -11 0 -20 5 -20 10 0 6 -9 10
-20 10 -13 0 -20 7 -20 20 0 11 -4 20 -10 20 -5 0 -10 9 -10 20 0 20 7 20 270
20 183 0 270 3 270 11 0 5 5 7 10 4 6 -4 10 26 10 84 0 49 -4 93 -10 96 -5 3
-10 19 -10 36 0 16 -4 29 -10 29 -5 0 -10 13 -10 28 0 16 -8 34 -20 42 -11 8
-20 19 -20 26 0 13 -75 84 -90 84 -5 0 -10 5 -10 10 0 6 -9 10 -20 10 -11 0
-20 5 -20 10 0 6 -9 10 -20 10 -11 0 -20 5 -20 10 0 6 -18 10 -40 10 -22 0
-40 5 -40 10 0 6 -27 10 -60 10 -33 0 -60 -4 -60 -10z m120 -220 c0 -5 9 -10
20 -10 11 0 20 -4 20 -10 0 -5 9 -10 20 -10 13 0 20 -7 20 -20 0 -11 5 -20 10
-20 6 0 10 -9 10 -20 0 -19 -7 -20 -160 -20 -137 0 -160 2 -160 15 0 20 65 85
85 85 8 0 15 5 15 10 0 6 27 10 60 10 33 0 60 -4 60 -10z"/>
<path d="M6300 3960 c0 -11 5 -20 10 -20 6 0 10 -9 10 -20 0 -11 5 -20 10 -20
6 0 10 -9 10 -20 0 -11 5 -20 10 -20 6 0 10 -9 10 -20 0 -11 5 -20 10 -20 6 0
10 -13 10 -30 0 -16 5 -30 10 -30 6 0 10 -9 10 -20 0 -11 5 -20 10 -20 6 0 10
-9 10 -20 0 -11 5 -20 10 -20 6 0 10 -9 10 -20 0 -11 5 -20 10 -20 6 0 10 -13
10 -30 0 -16 5 -30 10 -30 6 0 10 -9 10 -20 0 -11 5 -20 10 -20 6 0 10 -9 10
-20 0 -11 5 -20 10 -20 6 0 10 -9 10 -20 0 -11 5 -20 10 -20 6 0 10 -15 10
-32 0 -25 3 -29 10 -18 7 11 10 7 10 -17 0 -18 5 -33 10 -33 6 0 10 -9 10 -20
0 -11 5 -20 10 -20 6 0 10 -9 10 -20 0 -11 5 -20 10 -20 6 0 10 -13 10 -30 0
-16 5 -30 10 -30 6 0 10 -7 10 -16 0 -36 25 -44 134 -44 99 0 106 1 106 20 0
11 5 20 10 20 6 0 10 9 10 20 0 11 5 20 10 20 6 0 10 9 10 20 0 11 5 20 10 20
6 0 10 9 10 20 0 11 5 20 10 20 6 0 10 14 10 30 0 17 5 30 10 30 6 0 10 9 10
20 0 11 5 20 10 20 6 0 10 9 10 20 0 11 5 20 10 20 6 0 10 9 10 19 0 11 5 23
10 26 6 3 10 17 10 31 0 13 5 24 10 24 6 0 10 9 10 20 0 11 5 20 10 20 6 0 10
9 10 20 0 11 5 20 10 20 6 0 10 6 10 13 0 7 9 32 20 55 11 22 20 48 20 57 0 8
5 15 10 15 6 0 10 9 10 20 0 11 5 20 10 20 6 0 10 9 10 19 0 11 5 23 10 26 6
3 10 17 10 31 0 13 5 24 10 24 6 0 10 9 10 20 0 11 5 20 10 20 6 0 10 5 10 10
0 6 -45 10 -116 10 -119 0 -144 -8 -144 -44 0 -9 -4 -16 -10 -16 -5 0 -10 -9
-10 -20 0 -11 -4 -20 -10 -20 -5 0 -10 -13 -10 -30 0 -16 -4 -30 -10 -30 -5 0
-10 -9 -10 -20 0 -11 -4 -20 -10 -20 -5 0 -10 -9 -10 -20 0 -11 -4 -20 -10
-20 -5 0 -10 -13 -10 -30 0 -16 -4 -30 -10 -30 -5 0 -10 -9 -10 -20 0 -11 -4
-20 -10 -20 -5 0 -10 -9 -10 -20 0 -11 -4 -20 -10 -20 -5 0 -10 -13 -10 -30 0
-16 -4 -30 -10 -30 -5 0 -10 -7 -10 -16 0 -8 -7 -22 -15 -30 -13 -14 -17 -14
-30 0 -8 8 -15 22 -15 30 0 9 -4 16 -10 16 -5 0 -10 9 -10 20 0 11 -4 20 -10
20 -5 0 -10 14 -10 30 0 17 -4 30 -10 30 -5 0 -10 9 -10 20 0 11 -4 20 -10 20
-5 0 -10 9 -10 20 0 11 -4 20 -10 20 -5 0 -10 12 -10 26 0 14 -4 23 -10 19 -6
-4 -10 7 -10 24 0 17 -4 31 -10 31 -5 0 -10 9 -10 20 0 11 -4 20 -10 20 -5 0
-10 9 -10 20 0 11 -4 20 -10 20 -5 0 -10 12 -10 26 0 47 -18 54 -144 54 -109
0 -116 -1 -116 -20z"/>
</g>
</svg>
