<?xml version="1.0" standalone="no"?>
<!DOCTYPE svg PUBLIC "-//W3C//DTD SVG 20010904//EN"
 "http://www.w3.org/TR/2001/REC-SVG-20010904/DTD/svg10.dtd">
<svg version="1.0" xmlns="http://www.w3.org/2000/svg"
 width="177.000000pt" height="34.000000pt" viewBox="0 0 177.000000 34.000000"
 preserveAspectRatio="xMidYMid meet">

<g transform="translate(0.000000,34.000000) scale(0.100000,-0.100000)"
fill="#000000" stroke="none">
<path d="M346 301 c-4 -6 -2 -11 4 -11 6 0 8 -6 4 -12 -6 -10 -4 -10 7 0 9 9
10 15 2 23 -8 8 -13 8 -17 0z"/>
<path d="M489 268 c-5 -18 -6 -38 -1 -34 7 8 12 36 6 36 -2 0 -4 -1 -5 -2z"/>
<path d="M215 251 c-3 -5 -1 -12 4 -15 5 -3 11 1 15 9 6 16 -9 21 -19 6z"/>
<path d="M273 220 c-18 -11 -33 -22 -33 -25 0 -2 16 5 35 16 19 11 38 18 43
15 4 -2 14 -1 22 5 12 7 9 9 -10 9 -14 0 -40 -9 -57 -20z"/>
<path d="M380 236 c0 -2 15 -9 33 -15 29 -10 30 -9 13 4 -18 14 -46 20 -46 11z"/>
<path d="M580 165 l0 -75 45 0 c33 0 45 4 45 15 0 10 -10 15 -30 15 -20 0 -30
5 -30 15 0 8 9 15 20 15 11 0 20 7 20 15 0 8 -9 15 -20 15 -11 0 -20 7 -20 15
0 10 10 15 30 15 20 0 30 5 30 15 0 11 -12 15 -45 15 l-45 0 0 -75z"/>
<path d="M690 165 c0 -68 2 -75 20 -75 18 0 20 7 20 75 0 68 -2 75 -20 75 -18
0 -20 -7 -20 -75z"/>
<path d="M1390 234 c0 -3 9 -19 21 -35 l21 -30 -26 -39 c-25 -37 -25 -40 -7
-40 11 0 27 10 36 23 l16 22 18 -24 c10 -13 25 -22 35 -20 14 4 13 8 -8 40
l-25 36 25 37 c24 34 24 36 5 36 -11 0 -27 -10 -35 -21 l-14 -21 -14 21 c-11
19 -48 30 -48 15z"/>
<path d="M1169 209 c-7 -14 -8 -24 -1 -31 6 -6 8 -16 6 -22 -9 -23 15 -66 36
-66 11 0 20 7 20 15 0 8 -4 15 -10 15 -15 0 -12 57 3 64 10 5 10 7 0 12 -7 3
-13 12 -13 20 0 21 -28 17 -41 -7z"/>
<path d="M460 190 c6 -11 13 -20 16 -20 2 0 0 9 -6 20 -6 11 -13 20 -16 20 -2
0 0 -9 6 -20z"/>
<path d="M779 196 c-55 -27 -24 -111 38 -104 36 4 37 22 1 26 -40 5 -34 22 7
22 28 0 35 4 35 19 0 34 -45 55 -81 37z m46 -26 c3 -5 -3 -10 -15 -10 -12 0
-18 5 -15 10 3 6 10 10 15 10 5 0 12 -4 15 -10z"/>
<path d="M1051 198 c-28 -10 -37 -52 -17 -83 13 -20 24 -24 61 -23 l45 1 0 52
c0 53 0 53 -34 57 -19 2 -44 0 -55 -4z m56 -62 c-8 -21 -43 -20 -51 1 -10 26
23 48 42 29 8 -8 12 -22 9 -30z"/>
<path d="M1290 203 c-65 -23 -43 -119 26 -111 39 4 44 28 5 28 -17 0 -31 5
-31 10 0 6 16 10 35 10 28 0 35 4 35 19 0 11 -10 27 -22 35 -24 17 -25 17 -48
9z m35 -33 c3 -5 -3 -10 -15 -10 -12 0 -18 5 -15 10 3 6 10 10 15 10 5 0 12
-4 15 -10z"/>
<path d="M880 195 c0 -19 53 -105 64 -105 7 0 23 22 35 49 25 58 25 61 8 61
-7 0 -20 -15 -29 -32 l-15 -33 -17 33 c-9 17 -23 32 -31 32 -8 0 -15 -2 -15
-5z"/>
<path d="M411 154 c0 -11 3 -14 6 -6 3 7 2 16 -1 19 -3 4 -6 -2 -5 -13z"/>
<path d="M221 144 c0 -11 3 -14 6 -6 3 7 2 16 -1 19 -3 4 -6 -2 -5 -13z"/>
<path d="M307 139 c4 -13 8 -18 11 -10 2 7 -1 18 -6 23 -8 8 -9 4 -5 -13z"/>
<path d="M481 143 c0 -12 -4 -30 -7 -40 -5 -17 -5 -17 6 0 6 10 9 28 7 40 -4
22 -4 22 -6 0z"/>
<path d="M350 146 c0 -2 7 -7 16 -10 8 -3 12 -2 9 4 -6 10 -25 14 -25 6z"/>
<path d="M237 109 c7 -7 15 -10 18 -7 3 3 -2 9 -12 12 -14 6 -15 5 -6 -5z"/>
<path d="M426 79 c2 -4 -2 -10 -8 -12 -7 -3 -8 -6 -2 -6 5 -1 18 5 28 12 16
12 16 13 -3 13 -11 0 -18 -3 -15 -7z"/>
<path d="M330 77 c0 -3 12 -12 26 -22 15 -9 23 -12 20 -6 -7 11 -46 35 -46 28z"/>
<path d="M410 42 c0 -6 -8 -13 -17 -15 -16 -4 -16 -5 -1 -6 18 -1 34 16 24 26
-3 4 -6 1 -6 -5z"/>
</g>
</svg>
